<svg width="60" height="60" viewBox="0 0 60 60" fill="none" xmlns="http://www.w3.org/2000/svg">
<mask id="mask0_2_85" style="mask-type:alpha" maskUnits="userSpaceOnUse" x="0" y="0" width="60" height="60">
<circle cx="30" cy="30" r="30" fill="#9A9A9A"/>
</mask>
<g mask="url(#mask0_2_85)">
<circle cx="30" cy="30" r="30" fill="#484848"/>
<rect width="35.7958" height="31.5793" transform="matrix(1 -2.00602e-05 -2.42105e-05 1 11.9399 34.1731)" fill="#F2F2F2"/>
<rect width="2.75352" height="31.5794" transform="matrix(1 -1.97681e-05 -2.38887e-05 1 17.4469 34.173)" fill="#3BB094"/>
<rect width="2.75353" height="31.5793" transform="matrix(1 -2.05746e-05 -2.48313e-05 1 38.3738 34.1726)" fill="#3BB094"/>
<rect width="3.85495" height="8.02015" rx="1.92747" transform="matrix(1 -2.10127e-05 -2.53601e-05 1 47.736 21.6409)" fill="white"/>
<rect width="3.85493" height="8.02015" rx="1.92747" transform="matrix(1 -1.9236e-05 -2.45811e-05 1 8.08533 21.6417)" fill="white"/>
<path d="M49.138 25.6509C49.1378 35.4574 40.3961 43.4464 29.5622 43.4467C18.7284 43.4469 9.98705 35.4582 9.98729 25.6517C9.98753 15.8452 18.7293 7.85621 29.5631 7.85599C40.3969 7.85578 49.1383 15.8445 49.138 25.6509Z" fill="white" stroke="#F2F2F2" stroke-width="0.5"/>
<path fill-rule="evenodd" clip-rule="evenodd" d="M49.358 26.1522C48.7863 35.6521 40.1419 43.1952 29.5622 43.1954C18.9825 43.1956 10.3386 35.6528 9.76735 26.1529C9.74737 26.4848 9.73725 26.8191 9.73724 27.1555C9.73699 37.1216 18.6129 45.2006 29.5622 45.2004C40.5114 45.2002 49.3878 37.1209 49.388 27.1547C49.388 26.8183 49.3779 26.484 49.358 26.1522Z" fill="#DDDDDD"/>
<path fill-rule="evenodd" clip-rule="evenodd" d="M49.3579 28.1573C48.7861 37.6571 40.1418 45.2002 29.5622 45.2004C18.9825 45.2006 10.3385 37.6578 9.76729 28.158C9.74731 28.4898 9.73719 28.8241 9.73718 29.1605C9.73693 39.1267 18.6129 47.2057 29.5621 47.2055C40.5114 47.2052 49.3877 39.1259 49.3879 29.1597C49.388 28.8233 49.3778 28.4891 49.3579 28.1573Z" fill="white"/>
<path d="M47.3197 19.6359C40.7113 15.3753 22.2627 14.8744 12.9006 17.8822C9.87158 25.6518 11.1985 33.8045 18.6825 38.6844C22.8382 41.394 26.241 41.8828 31.3487 41.6917C35.1275 41.5502 37.4797 41.2251 40.7107 39.4358C48.2957 35.2353 49.247 24.1472 47.3197 19.6359Z" fill="black"/>
<rect width="1.09031" height="0.507292" rx="0.253646" transform="matrix(0.949259 -0.314497 0.371273 0.928524 36.6604 44.8857)" fill="#C4C4C4"/>
<rect width="0.545174" height="0.50727" rx="0.253635" transform="matrix(0.949258 -0.314497 0.371272 0.928524 38.8633 43.8831)" fill="#C4C4C4"/>
<mask id="mask1_2_85" style="mask-type:alpha" maskUnits="userSpaceOnUse" x="11" y="15" width="38" height="27">
<path d="M47.3196 19.6359C40.7112 15.3753 22.2626 14.8743 12.9006 17.8821C9.87147 25.6517 11.1983 33.8044 18.6824 38.6843C22.838 41.3939 26.2408 41.8827 31.3485 41.6916C35.1273 41.5502 37.4795 41.2251 40.7105 39.4358C48.2956 35.2353 49.2469 24.1472 47.3196 19.6359Z" fill="black"/>
</mask>
<g mask="url(#mask1_2_85)">
<rect width="5.34932" height="28.7052" transform="matrix(0.843293 0.537455 -0.60974 0.792601 26.2575 11.8885)" fill="#484848"/>
<rect width="3.01841" height="30.261" transform="matrix(0.843293 0.537455 -0.60974 0.792602 35.1229 14.7303)" fill="#484848"/>
</g>
<ellipse cx="3.57958" cy="3.25819" rx="3.57958" ry="3.25819" transform="matrix(1 -1.96918e-05 -2.37659e-05 1 14.6938 19.6366)" fill="#828282" fill-opacity="0.5"/>
<ellipse cx="1.92747" cy="1.75441" rx="1.92747" ry="1.75441" transform="matrix(1 -2.19399e-05 -2.64791e-05 1 20.2008 19.6364)" fill="#828282" fill-opacity="0.5"/>
<ellipse cx="1.37676" cy="1.25315" rx="1.37676" ry="1.25315" transform="matrix(1 -1.8206e-05 -2.19726e-05 1 14.6937 24.6491)" fill="#828282" fill-opacity="0.5"/>
<ellipse cx="1.37676" cy="1.25315" rx="1.37676" ry="1.25315" transform="matrix(1 -1.933e-05 -2.33292e-05 1 17.9982 12.1176)" fill="#E8E8E8"/>
<ellipse cx="1.37677" cy="1.25315" rx="1.37677" ry="1.25315" transform="matrix(1 -2.15969e-05 -2.60652e-05 1 24.056 10.1124)" fill="#E8E8E8"/>
<rect width="14.869" height="7.01763" rx="3.50882" transform="matrix(1 -1.97427e-05 -2.38273e-05 1 21.8522 50.2132)" fill="#273AE7"/>
<path d="M31.2142 51.2156L28.3819 53.4086L30.5847 53.0953L26.8084 56.2283" stroke="#D2CB15"/>
</g>
</svg>
